<?xml version="1.0" encoding="UTF-8" standalone="no"?>
<!-- Created with Inkscape (http://www.inkscape.org/) -->

<svg
   xmlns:osb="http://www.openswatchbook.org/uri/2009/osb"
   xmlns:dc="http://purl.org/dc/elements/1.1/"
   xmlns:cc="http://creativecommons.org/ns#"
   xmlns:rdf="http://www.w3.org/1999/02/22-rdf-syntax-ns#"
   xmlns:svg="http://www.w3.org/2000/svg"
   xmlns="http://www.w3.org/2000/svg"
   xmlns:xlink="http://www.w3.org/1999/xlink"
   xmlns:sodipodi="http://sodipodi.sourceforge.net/DTD/sodipodi-0.dtd"
   xmlns:inkscape="http://www.inkscape.org/namespaces/inkscape"
   width="30"
   height="30"
   id="svg2"
   version="1.1"
   inkscape:version="0.48.4 r9939"
   inkscape:export-filename="/home/jm/Documents/programmeren/python/bacon/pu_zap.png"
   inkscape:export-xdpi="90"
   inkscape:export-ydpi="90"
   sodipodi:docname="pu.svg">
  <defs
     id="defs4">
    <linearGradient
       id="linearGradient5787">
      <stop
         style="stop-color:#18f5ff;stop-opacity:1;"
         offset="0"
         id="stop5789" />
      <stop
         style="stop-color:#18f5ff;stop-opacity:1;"
         offset="1"
         id="stop5791" />
    </linearGradient>
    <linearGradient
       id="linearGradient5781"
       osb:paint="solid">
      <stop
         style="stop-color:#18f5ff;stop-opacity:1;"
         offset="0"
         id="stop5783" />
    </linearGradient>
    <linearGradient
       inkscape:collect="always"
       xlink:href="#linearGradient5787"
       id="linearGradient5793"
       x1="-0.56170816"
       y1="14.449554"
       x2="30.494634"
       y2="14.449554"
       gradientUnits="userSpaceOnUse"
       gradientTransform="matrix(0.96670333,0,0,0.92292461,0.53190947,1024.0265)" />
  </defs>
  <sodipodi:namedview
     id="base"
     pagecolor="#ffffff"
     bordercolor="#666666"
     borderopacity="1.0"
     inkscape:pageopacity="0.0"
     inkscape:pageshadow="2"
     inkscape:zoom="13.333318"
     inkscape:cx="8.0988832"
     inkscape:cy="5.5858013"
     inkscape:document-units="px"
     inkscape:current-layer="layer1"
     showgrid="false"
     showguides="true"
     inkscape:guide-bbox="true"
     inkscape:window-width="1276"
     inkscape:window-height="1020"
     inkscape:window-x="1920"
     inkscape:window-y="0"
     inkscape:window-maximized="0" />
  <metadata
     id="metadata7">
    <rdf:RDF>
      <cc:Work
         rdf:about="">
        <dc:format>image/svg+xml</dc:format>
        <dc:type
           rdf:resource="http://purl.org/dc/dcmitype/StillImage" />
        <dc:title></dc:title>
      </cc:Work>
    </rdf:RDF>
  </metadata>
  <g
     inkscape:label="Layer 1"
     inkscape:groupmode="layer"
     id="layer1"
     transform="translate(0,-1022.3622)">
    <rect
       style="fill:#000000;fill-opacity:1;stroke:none"
       id="rect3955"
       width="91.999992"
       height="229.19998"
       x="-308.61908"
       y="992.01904" />
    <path
       sodipodi:type="arc"
       style="fill:#ffea35;fill-opacity:1;stroke:none"
       id="path2985"
       sodipodi:cx="9.7321424"
       sodipodi:cy="9.5982141"
       sodipodi:rx="9.5535717"
       sodipodi:ry="9.5089283"
       d="m 19.285714,9.5982141 a 9.5535717,9.5089283 0 1 1 -19.10714325,0 9.5535717,9.5089283 0 1 1 19.10714325,0 z"
       transform="matrix(1.5700934,0,0,1.5774648,-103.59895,1024.87)" />
    <rect
       style="fill:#dd8800;fill-opacity:1;stroke:none"
       id="rect3755"
       width="4.5"
       height="9.1677942"
       x="-97.318581"
       y="1036.8431" />
    <path
       style="fill:#dd8800;fill-opacity:1;stroke:none"
       d="m -97.31858,1036.933 2.249265,-2.9222 2.250735,2.924 z"
       id="path3757"
       inkscape:connector-curvature="0" />
    <rect
       style="fill:#dd8800;fill-opacity:1;stroke:none"
       id="rect3755-5"
       width="4.5"
       height="9.1677942"
       x="-90.568581"
       y="1036.8431" />
    <path
       style="fill:#dd8800;fill-opacity:1;stroke:none"
       d="m -90.56858,1036.9328 2.249267,-2.9221 2.250734,2.9239 z"
       id="path3757-8"
       inkscape:connector-curvature="0" />
    <rect
       style="fill:#dd8800;fill-opacity:1;stroke:none"
       id="rect3755-8"
       width="4.5"
       height="9.1677942"
       x="-83.818581"
       y="1036.8431" />
    <path
       style="fill:#dd8800;fill-opacity:1;stroke:none"
       d="m -83.818579,1036.933 2.249266,-2.9222 2.250734,2.924 z"
       id="path3757-2"
       inkscape:connector-curvature="0" />
    <path
       sodipodi:type="arc"
       style="fill:#f5f5f5;fill-opacity:1;stroke:none"
       id="path3106"
       sodipodi:cx="4.5999999"
       sodipodi:cy="16"
       sodipodi:rx="13.599999"
       sodipodi:ry="12.999999"
       d="M 18.199999,16 A 13.599999,12.999999 0 1 1 -8.9999995,16 13.599999,12.999999 0 1 1 18.199999,16 z"
       transform="matrix(1.1029412,0,0,1.1538462,-63.895474,986.93948)" />
    <rect
       style="fill:#e71b00;fill-opacity:1;stroke:none"
       id="rect3801"
       width="4.000001"
       height="20"
       x="-60.821945"
       y="995.40094" />
    <rect
       style="fill:#e71b00;fill-opacity:1;stroke:none"
       id="rect3801-8"
       width="4"
       height="20"
       x="1003.4009"
       y="48.821945"
       transform="matrix(0,1,-1,0,0,0)"
       inkscape:transform-center-x="10.000005"
       inkscape:transform-center-y="-3.4998095" />
    <path
       sodipodi:type="arc"
       style="fill:#fd2d2d;fill-opacity:1;stroke:none"
       id="path2985-9"
       sodipodi:cx="9.7321424"
       sodipodi:cy="9.5982141"
       sodipodi:rx="9.5535717"
       sodipodi:ry="9.5089283"
       d="m 19.285714,9.5982141 a 9.5535717,9.5089283 0 1 1 -19.10714325,0 9.5535717,9.5089283 0 1 1 19.10714325,0 z"
       transform="matrix(1.5700934,0,0,1.5774648,-111.54698,992.06202)" />
    <rect
       style="fill:#41d700;fill-opacity:1;stroke:none"
       id="rect3070"
       width="8.9770908"
       height="3.4351404"
       x="-554.32324"
       y="795.16766"
       transform="matrix(0.83530754,-0.54978297,0.45180875,0.89211482,0,0)" />
    <rect
       style="fill:#41d700;fill-opacity:1;stroke:none"
       id="rect3070-0"
       width="8.9770908"
       height="3.4351404"
       x="372.47574"
       y="901.70227"
       transform="matrix(0.83530754,0.54978297,-0.45180875,0.89211482,0,0)" />
    <rect
       style="fill:#41d700;fill-opacity:1;stroke:none"
       id="rect3070-1"
       width="8.9770908"
       height="3.4351404"
       x="-551.59485"
       y="790.12347"
       transform="matrix(0.83530754,-0.54978297,0.45180875,0.89211482,0,0)" />
    <rect
       style="fill:#41d700;fill-opacity:1;stroke:none"
       id="rect3070-0-1"
       width="8.9770908"
       height="3.4351404"
       x="369.74744"
       y="896.65814"
       transform="matrix(0.83530754,0.54978297,-0.45180875,0.89211482,0,0)" />
    <rect
       style="fill:#41d700;fill-opacity:1;stroke:none"
       id="rect3070-8"
       width="8.9770908"
       height="3.4351404"
       x="-548.86652"
       y="785.07928"
       transform="matrix(0.83530754,-0.54978297,0.45180875,0.89211482,0,0)" />
    <rect
       style="fill:#41d700;fill-opacity:1;stroke:none"
       id="rect3070-0-13"
       width="8.9770908"
       height="3.4351404"
       x="367.0191"
       y="891.61389"
       transform="matrix(0.83530754,0.54978297,-0.45180875,0.89211482,0,0)" />
    <path
       sodipodi:type="arc"
       style="fill:#5594b2;fill-opacity:0.66829272;stroke:#0039dc;stroke-width:2.44462204;stroke-miterlimit:4;stroke-opacity:1;stroke-dasharray:none"
       id="path3957"
       sodipodi:cx="22.699999"
       sodipodi:cy="-17.399998"
       sodipodi:rx="19.099998"
       sodipodi:ry="17.599998"
       d="m 41.799997,-17.399998 a 19.099998,17.599998 0 1 1 -38.1999966,0 19.099998,17.599998 0 1 1 38.1999966,0 z"
       transform="matrix(0.7362566,0,0,0.79900575,-71.292327,1054.3762)" />
    <text
       xml:space="preserve"
       style="font-size:40.95999908px;font-style:normal;font-variant:normal;font-weight:normal;font-stretch:normal;line-height:125%;letter-spacing:0px;word-spacing:0px;fill:#fff71d;fill-opacity:1;stroke:none;font-family:Munro;-inkscape-font-specification:Munro"
       x="-60.979305"
       y="1051.1736"
       id="text4143-4"
       sodipodi:linespacing="125%"><tspan
         sodipodi:role="line"
         id="tspan4145-8"
         x="-60.979305"
         y="1051.1736">s</tspan></text>
    <text
       xml:space="preserve"
       style="font-size:40.95999908px;font-style:normal;font-variant:normal;font-weight:normal;font-stretch:normal;line-height:125%;letter-spacing:0px;word-spacing:0px;fill:#f5276f;fill-opacity:1;stroke:none;font-family:Munro;-inkscape-font-specification:Munro"
       x="-60.579304"
       y="1050.4735"
       id="text4143"
       sodipodi:linespacing="125%"><tspan
         sodipodi:role="line"
         id="tspan4145"
         x="-60.579304"
         y="1050.4735">s</tspan></text>
    <flowRoot
       xml:space="preserve"
       id="flowRoot4168"
       style="fill:black;stroke:none;stroke-opacity:1;stroke-width:1px;stroke-linejoin:miter;stroke-linecap:butt;fill-opacity:1;font-family:Sans;font-style:normal;font-weight:normal;font-size:40px;line-height:125%;letter-spacing:0px;word-spacing:0px"><flowRegion
         id="flowRegion4170"><rect
           id="rect4172"
           width="28.567112"
           height="47.941837"
           x="6.6468034"
           y="-5.7796011" /></flowRegion><flowPara
         id="flowPara4174"></flowPara></flowRoot>    <path
       sodipodi:type="arc"
       style="fill:#004493;fill-opacity:1;stroke:none"
       id="path3106-7"
       sodipodi:cx="4.5999999"
       sodipodi:cy="16"
       sodipodi:rx="13.599999"
       sodipodi:ry="12.999999"
       d="M 18.199999,16 A 13.599999,12.999999 0 1 1 -8.9999995,16 13.599999,12.999999 0 1 1 18.199999,16 z"
       transform="matrix(0.95501566,-0.55137855,0.5768268,0.99909333,1.3776993,1023.913)" />
    <path
       style="fill:none;stroke:#eaff04;stroke-width:3;stroke-linecap:butt;stroke-linejoin:bevel;stroke-miterlimit:4;stroke-opacity:1;stroke-dasharray:none"
       d="m 15.322072,1027.1742 c -6.6745746,9.1203 -6.6550982,9.1663 -6.6550982,9.1663 l 12.2435272,0.1963 -6.878426,10.5638"
       id="path4327"
       inkscape:connector-curvature="0" />
    <path
       style="fill:none;stroke:url(#linearGradient5793);stroke-width:0.94456035px;stroke-linecap:butt;stroke-linejoin:miter;stroke-opacity:1"
       d="m 3.8128507,1032.4076 c 0,-0.075 -0.013075,-0.1528 0,-0.2278 0.00731,-0.042 0.045592,-0.073 0.059652,-0.1139 0.011215,-0.032 0,-0.1335 0,-0.1709 0,-0.1328 0,-0.2657 0,-0.3986 0,-0.019 0,-0.038 0,-0.057 0,-0.019 0.014057,-0.043 0,-0.057 -0.014057,-0.014 -0.043108,0.011 -0.059652,0 -0.142619,-0.089 -0.075429,-0.1319 -0.2386138,-0.1708 -0.038581,-0.01 -0.081579,0.012 -0.1193061,0 -0.026678,-0.01 -0.039769,-0.038 -0.059654,-0.057 -0.019885,-0.019 -0.047077,-0.033 -0.059652,-0.057 -0.00889,-0.017 0,-0.038 0,-0.057 0,-0.019 0,-0.038 0,-0.057 0,-0.096 0,-0.1899 0,-0.2848 0,-0.038 -0.00964,-0.077 0,-0.1139 0.010777,-0.041 0.048871,-0.073 0.059652,-0.1139 0.020315,-0.078 -0.024056,-0.2729 0,-0.3418 0.00889,-0.025 0.039769,-0.038 0.059654,-0.057 0,-0.038 -0.012576,-0.078 0,-0.1139 0.00889,-0.025 0.037157,-0.041 0.059652,-0.057 0.185024,-0.1326 0.1515143,-0.1053 0.3579208,-0.171 0.059652,-0.019 0.1205774,-0.034 0.1789606,-0.057 0.041283,-0.016 0.076171,-0.047 0.1193076,-0.057 0.038581,-0.01 0.081579,0.012 0.1193076,0 0.026677,-0.01 0.032975,-0.048 0.059652,-0.057 0.037728,-0.012 0.081579,0.012 0.1193076,0 0.2727403,-0.088 -0.2527071,-0.045 0.1789604,-0.114 0.078455,-0.013 0.159076,0 0.2386139,0 0.1193077,0 0.238614,0 0.3579208,0 0.067013,0 0.2558993,-0.024 0.2982675,0.057 0.026677,0.051 0,0.114 0,0.1709 0,0.133 0,0.2658 0,0.3987 0,0.1329 0,0.2657 0,0.3987 0,0.019 0.014057,0.043 0,0.057 -0.014057,0.014 -0.045592,-0.014 -0.059652,0 -0.1234251,0.1179 0.1886102,0 -0.059652,0.114 -0.056242,0.027 -0.1193077,0.038 -0.1789606,0.057 -0.1709808,0.054 -0.285267,0.099 -0.4772277,0.1138 -0.1387101,0.011 -0.2797819,-0.019 -0.4175743,0 -0.1433067,0.02 -0.2751483,0.089 -0.4175745,0.114 -0.078255,0.014 -0.1590758,0 -0.2386139,0 -0.059652,0 -0.1193077,0 -0.1789603,0 -0.059652,0 -0.1201193,-0.01 -0.1789606,0 -0.4333771,0.069 0.020965,0.057 -0.2982674,0.057 -0.061713,0 -0.082451,0.014 -0.1193076,-0.057 -0.00889,-0.017 0,-0.038 0,-0.057 0,-0.038 0,-0.076 0,-0.1138 0,-0.019 -0.00629,-0.039 0,-0.057 0.014057,-0.04 0.048869,-0.073 0.059652,-0.1139 0.00964,-0.036 -0.00964,-0.078 0,-0.114 0.010777,-0.041 0.039769,-0.076 0.059652,-0.1139 0.019884,-0.038 0.032976,-0.081 0.059654,-0.1139 0.092727,-0.1181 0.2597709,-0.2246 0.3579206,-0.3416 0.044787,-0.053 0.07452,-0.1175 0.1193061,-0.171 0.052701,-0.063 0.1283422,-0.1064 0.1789604,-0.1708 0.043017,-0.055 0.068612,-0.1225 0.1193076,-0.1709 0.050696,-0.048 0.1282651,-0.066 0.1789606,-0.1139 0.050696,-0.048 0.068611,-0.1225 0.1193076,-0.1709 0.031441,-0.03 0.083737,-0.031 0.1193076,-0.057 0.044994,-0.032 0.079538,-0.077 0.1193076,-0.114 0.039769,-0.038 0.079538,-0.076 0.1193078,-0.1139 0.019884,-0.019 0.047076,-0.033 0.059652,-0.057 0.02825,-0.054 -0.05885,-0.2848 0.059652,-0.2848 0.06288,0 0.1193077,0.038 0.1789605,0.057 0.093782,0.029 0.3036324,0.067 0.3579207,0.1708 0.00854,0.017 0,0.2544 0,0.2847 0,0.057 0,0.1139 0,0.1709 0,0.019 0.014057,0.043 0,0.057 -0.014057,0.014 -0.039769,0 -0.059652,0 -0.019885,0 -0.039769,0 -0.059652,0 -0.019885,0 -0.045592,0.014 -0.059654,0 -0.031441,-0.029 -0.034992,-0.079 -0.059654,-0.1139 -0.015598,-0.023 -0.044054,-0.034 -0.059654,-0.057 -0.043273,-0.062 -0.1085286,-0.2231 -0.1193076,-0.2848 -0.00981,-0.056 0,-0.114 0,-0.1709 0,-0.01 -0.0062,-0.3869 0,-0.3985 0.036607,-0.071 0.3858362,-0.2129 0.4175743,-0.228 0.1193077,-0.057 0.229664,-0.1357 0.3579209,-0.1709 0.476153,-0.057 0.4537611,-0.03 0.8948023,-0.1707 0.4641897,-0.1478 0.1252965,-0.096 0.5965347,-0.171 0.019614,0 0.045592,0.014 0.059652,0 0.014057,-0.014 0,-0.074 0,-0.057 0,0.1709 0,0.3417 0,0.5127 0,0.038 0,0.076 0,0.1138 0,0.019 0.014057,0.043 0,0.057 -0.014057,0.014 -0.045592,-0.014 -0.059652,0 -0.014057,0.014 0.019885,0.057 0,0.057 -0.019885,0 -0.00482,-0.038 0,-0.057 0.01525,-0.058 0.015192,-0.1283 0.059652,-0.1706 0.1209522,-0.1156 0.2769363,-0.192 0.4175745,-0.2848 0.2357868,-0.1558 0.4864192,-0.2914 0.7158418,-0.4556 0.1242429,-0.089 0.2190138,-0.2185 0.3579207,-0.2848 0.1081841,-0.052 0.2456193,-0.014 0.357921,-0.057 0.092311,-0.035 0.149687,-0.1284 0.238614,-0.1709 0.035572,-0.017 0.079538,0 0.1193076,0 0.039769,0 0.099423,-0.019 0.059654,0.057 -0.05596,0.107 -0.076526,0.025 -0.1789603,0.057 -0.026678,0.01 -0.034502,0.045 -0.059652,0.057 -0.017785,0.01 -0.041869,-0.01 -0.059654,0 -0.025153,0.012 -0.034501,0.045 -0.059652,0.057 -0.017785,0.01 -0.045592,-0.014 -0.059652,0 -0.014057,0.014 0.019885,0.057 0,0.057 -0.019885,0 0,-0.038 0,-0.057 0,-0.076 0,-0.1519 0,-0.2279 0,-0.038 0,-0.077 0,-0.1138 0,-0.019 -0.00627,-0.039 0,-0.057 0.014057,-0.04 0.04314,-0.074 0.059652,-0.114 0.023352,-0.056 0.027302,-0.1193 0.059652,-0.1708 0.028938,-0.046 0.084172,-0.071 0.1193077,-0.114 0.044787,-0.053 0.068612,-0.1223 0.1193076,-0.1707 0.070303,-0.067 0.1533599,-0.122 0.2386139,-0.1709 0.01705,-0.01 0.045592,-0.014 0.059652,0 0.00737,0.01 0,0.1921 0,0.2278 0,0.04 -0.034297,0.1588 0.059654,0.1138 0.024682,-0.012 0.1621037,-0.1466 0.1789606,-0.1707 0.036326,-0.052 0.050917,-0.1382 0.1193062,-0.1709 0.017785,-0.01 0.041867,0.01 0.059652,0 0.02516,-0.012 0.03208,-0.052 0.05965,-0.057 0.07799,-0.015 0.159075,0 0.238613,0 0.05966,0 0.119306,0 0.17896,0 0.05965,0 0.119307,0 0.17896,0 0.01989,0 0.04186,0.01 0.05966,0 0.06412,-0.03 0.119306,-0.075 0.178959,-0.114 0.05965,-0.038 0.123883,-0.071 0.178961,-0.1138 0.06481,-0.052 0.113084,-0.1206 0.17896,-0.1709 0.03472,-0.026 0.08231,-0.033 0.119306,-0.057 0.09123,-0.058 0.04687,-0.08 0.119308,-0.1709 0.03375,-0.043 0.09416,-0.066 0.119306,-0.1139 0.01875,-0.035 -0.01874,-0.1919 0,-0.2278 0.01257,-0.024 0.05076,-0.031 0.05965,-0.057 0.0066,-0.019 -0.0053,-0.3986 0,-0.3986 0.01989,0 0,0.038 0,0.057 0,0.057 0,0.114 0,0.171 0,0.2118 -0.01561,0.297 0.05965,0.5125 0.02812,0.081 0.08427,0.1498 0.119308,0.2278 0.02477,0.055 0.02037,0.124 0.05965,0.1709 0.04478,0.053 0.134173,0.061 0.17896,0.1139 0.03927,0.047 0.0273,0.1194 0.05966,0.1708 0.05683,0.09 0.177416,0.1403 0.238613,0.2279 0.02467,0.035 0.03499,0.08 0.05965,0.1139 0.03621,0.052 0.152526,0.1202 0.178962,0.1708 0.0089,0.017 -0.01406,0.043 0,0.057 0.01405,0.014 0.05076,0.017 0.05965,0 0.01778,-0.034 0,-0.077 0,-0.1139 0.01989,-0.057 0.02846,-0.1188 0.05965,-0.1709 0.04933,-0.081 0.126267,-0.1473 0.178961,-0.2278 0.04712,-0.072 0.07518,-0.1541 0.119306,-0.2278 0.03558,-0.06 0.09664,-0.106 0.119306,-0.1709 0.03825,-0.1095 0.02784,-0.2303 0.05965,-0.3417 0.02818,-0.099 0.08272,-0.1887 0.119308,-0.2848 0.153451,-0.4028 0.182687,-0.6165 0.477228,-0.9681 0.140536,-0.1678 0.346468,-0.2808 0.477227,-0.4556 0.140766,-0.1881 -0.04145,-0.1586 0.17896,-0.2849 0.05685,-0.032 0.378575,-0.1063 0.417575,-0.1138 0.02414,0 0.113551,0.01 0.119306,0 0.01405,-0.014 -0.01405,-0.043 0,-0.057 0.01405,-0.014 0.03977,0 0.05965,0 0.0199,0 0.04079,-0.01 0.05965,0 0.04219,0.014 0.07953,0.038 0.119307,0.057 0.03977,0.019 0.0823,0.033 0.119308,0.057 0.0234,0.015 0.03449,0.045 0.05965,0.057 0.09753,0.046 0.298564,0.058 0.35792,0.1709 0.01013,0.02 0,0.3344 0,0.3987 0,0.2848 0,0.5696 0,0.8544 0,0.019 0.0089,0.04 0,0.057 -0.01254,0.024 -0.03977,0.038 -0.05965,0.057 -0.0199,0.019 -0.03153,0.057 -0.05965,0.057 -0.03748,0 0.07171,-0.1765 -0.05965,-0.1138 -0.03977,0.019 -0.100943,0.098 -0.05965,0.1138 0.09414,0.036 0.197225,0.049 0.298265,0.057 0.593407,0.047 0.406456,-0.051 1.133417,-0.1708 2.750955,-0.4528 -0.594557,0.199 1.908911,-0.2278 0.261162,-0.044 0.514976,-0.1231 0.775496,-0.1709 0.256833,-0.047 0.516996,-0.076 0.775495,-0.1139 0.258498,-0.038 0.515254,-0.089 0.775494,-0.1139 0.138505,-0.013 0.278384,0 0.417576,0 0.09942,0 0.198845,0 0.298266,0 0.0199,0 0.03977,0 0.05965,0 0.0199,0 0.04558,-0.014 0.05965,0 0.01405,0.014 0,0.038 0,0.057 0,0.019 0.01405,0.043 0,0.057 -0.048,0.046 -0.257499,0.097 -0.298265,0.1139 -0.08175,0.033 -0.156878,0.08 -0.238615,0.1139 -0.11559,0.047 -0.241155,0.071 -0.357921,0.1139 -0.08257,0.031 -0.159077,0.076 -0.238613,0.114 -0.03977,0.019 -0.08231,0.033 -0.119308,0.057 -0.0234,0.015 -0.03449,0.045 -0.05965,0.057 -0.0178,0.01 -0.04558,-0.014 -0.05965,0 -0.01405,0.014 0.0089,0.04 0,0.057 -0.02515,0.048 -0.09416,0.067 -0.119308,0.1139 -0.0089,0.017 0.0089,0.04 0,0.057 -0.197845,0.1889 0.02812,-0.054 -0.05965,0.1138 -0.01254,0.024 -0.04708,0.033 -0.05965,0.057 -0.0089,0.017 0.0089,0.04 0,0.057 -0.02157,0.041 -0.145761,0.097 -0.05965,0.114 0.0975,0.019 0.198844,0 0.298265,0 0.09943,0 0.198846,0 0.298268,0 0.119307,0 0.243646,-0.032 0.357922,0 0.09523,0.027 0.152291,0.1238 0.238615,0.1708 0.0546,0.029 0.126638,0.024 0.178959,0.057 0.01656,0.011 -0.0089,0.04 0,0.057 0.136509,0.2606 -0.02473,-0.2416 0.119308,0.1709 0.0063,0.018 0,0.038 0,0.057 0.0199,0.019 0.04707,0.033 0.05965,0.057 0.0089,0.017 -0.01405,0.043 0,0.057 0.01405,0.014 0.04558,-0.014 0.05965,0 0.01405,0.014 0.01405,0.043 0,0.057 -0.01405,0.014 -0.04187,-0.01 -0.05965,0 -0.02516,0.012 -0.03449,0.045 -0.05965,0.057 -0.01778,0.01 -0.04187,-0.01 -0.05965,0 -0.0503,0.024 -0.069,0.089 -0.119308,0.1139 -0.01779,0.01 -0.04311,-0.011 -0.05965,0 -0.04679,0.03 -0.069,0.09 -0.119308,0.1138 -0.03557,0.017 -0.08073,-0.01 -0.119307,0 -0.1444,0.034 -0.119762,0.085 -0.238615,0.1709 -0.03558,0.025 -0.08375,0.031 -0.119307,0.057 -0.04498,0.032 -0.069,0.089 -0.119308,0.1139 -0.209493,0 -0.04729,-0.026 -0.178961,0.057 -0.03699,0.024 -0.08233,0.033 -0.119307,0.057 -0.04679,0.029 -0.069,0.09 -0.119308,0.1138 -0.0178,0.01 -0.04187,-0.01 -0.05965,0 -0.0388,0.019 -0.08434,0.067 -0.05965,0.114 0.06849,0.1309 0.297663,0.114 0.417573,0.114 0.198846,0 0.398678,0.019 0.596536,0 0.201776,-0.02 0.397691,-0.077 0.596536,-0.114 0.198842,-0.038 0.397689,-0.075 0.596534,-0.114 0.198844,-0.038 0.394757,-0.094 0.596534,-0.1138 0.197859,-0.019 0.39769,0 0.596534,0 0.338037,0 0.676074,0 1.014111,0 0.218727,0 0.437459,0 0.656188,0 0.09941,0 0.198845,0 0.298267,0 0.0199,0 0.04187,-0.01 0.05965,0 0.02515,0.012 0.04707,0.033 0.05965,0.057 0.0089,0.017 0,0.038 0,0.057 0,0.057 0.01885,0.1169 0,0.171 -0.0089,0.025 -0.03625,0.042 -0.05965,0.057 -0.03699,0.024 -0.07953,0.038 -0.119308,0.057 -0.07953,0.038 -0.159076,0.076 -0.238613,0.1139 -0.07953,0.038 -0.154251,0.088 -0.238615,0.114 -0.01885,0.01 -0.04078,-0.01 -0.05965,0 -0.108348,0.034 -0.110707,0.049 -0.178962,0.1138 -0.0199,0.019 -0.03626,0.042 -0.05965,0.057 -0.03699,0.024 -0.07802,0.041 -0.119307,0.057 -0.198731,0.075 -0.338537,0.051 -0.477229,0.2278 -0.04795,0.061 -0.166771,0.3858 -0.178961,0.4555 -0.01636,0.094 0,0.1899 0,0.2848 0,0.022 -0.0057,0.2793 0,0.2848 0.01405,0.014 0.03977,0 0.05965,0 0.07953,0 0.159077,0 0.238614,0 0.0199,0 0.03977,0 0.05965,0 0.0199,0 0.04558,-0.014 0.05965,0 0.150671,0.1439 0.02292,0.066 0.05965,0.1709 0.01405,0.04 0.03977,0.077 0.05965,0.1138 0.03977,0.076 0.07953,0.1519 0.119307,0.228 0.0199,0.038 0.04558,0.073 0.05965,0.1138 0.05919,0.1696 -0.141256,-0.1168 0.05965,0.1708 0.0156,0.023 0.05076,0.031 0.05965,0.057 0.01254,0.036 -0.01254,0.078 0,0.114 0.0178,0.051 0.09416,0.066 0.119308,0.1138 0.0176,0.033 -0.0136,0.1317 0,0.171 0.01405,0.04 0.04558,0.074 0.05965,0.1138 0.0063,0.018 -0.0063,0.039 0,0.057 0.03612,0.1035 0.05107,0.1057 0.119308,0.1709 0.0199,0.019 0.03449,0.045 0.05965,0.057 0.01778,0.01 0.04558,-0.014 0.05965,0 0.01405,0.014 -0.0195,0.053 0,0.057 0.0975,0.019 0.198844,0 0.298267,0 0.09941,0 0.200001,0.015 0.298267,0 0.162065,-0.024 0.314524,-0.094 0.477228,-0.1139 0.157849,-0.019 0.318556,0.011 0.477227,0 0.120639,-0.01 0.23757,-0.045 0.357922,-0.057 0.07914,-0.01 0.159076,0 0.238614,0 0.07953,0 0.16062,-0.015 0.238613,0 0.01481,0 0.15937,0.1521 0.178962,0.1708 0.0199,0.019 0.03449,0.045 0.05965,0.057 0.06364,0.03 0.07975,-0.056 0.119307,0.057 0.04679,0.134 -0.01675,0.1219 -0.119307,0.1709 -0.153884,0.074 -0.31413,0.1189 -0.477227,0.1708 -0.05965,0.019 -0.121167,0.033 -0.17896,0.057 -0.08172,0.033 -0.154251,0.088 -0.238614,0.1138 -0.09618,0.03 -0.200776,0.03 -0.298268,0.057 -0.04276,0.012 -0.07953,0.038 -0.119307,0.057 -0.03977,0.019 -0.08232,0.033 -0.119308,0.057 -0.0234,0.015 -0.03977,0.038 -0.05965,0.057 -0.0199,0.019 -0.03449,0.045 -0.05965,0.057 -0.0178,0.01 -0.07745,-0.01 -0.05965,0 0.05625,0.027 0.120577,0.034 0.178961,0.057 0.04128,0.016 0.07802,0.041 0.119307,0.057 0.351979,0.1345 -0.0074,-0.011 0.417574,0.057 0.04386,0.01 0.07616,0.047 0.119308,0.057 0.03859,0.01 0.08073,-0.01 0.119308,0 0.288064,0.069 -0.003,0.027 0.178961,0.114 0.01779,0.01 0.04187,-0.01 0.05965,0 0.02515,0.012 0.03977,0.038 0.05965,0.057 0.0199,0.019 0.04707,0.033 0.05965,0.057 0.0091,0.018 0,0.1452 0,0.1709 0,0.019 0.01405,0.043 0,0.057 -0.01405,0.014 -0.04559,-0.014 -0.05965,0 -0.01405,0.014 0,0.038 0,0.057 0,0.037 -0.01118,0.1388 0,0.1709 0.03612,0.1034 0.05105,0.1057 0.119307,0.1709 0.0199,0.019 0.04707,0.033 0.05965,0.057 0.0089,0.017 0,0.038 0,0.057 0,0.019 0,0.038 0,0.057 0,0.019 0.0063,0.039 0,0.057 -0.144036,0.4125 0.01721,-0.089 -0.119307,0.1709 -0.0089,0.017 0,0.038 0,0.057 0,0.038 0,0.076 0,0.1139 0,0.095 0,0.1899 0,0.2847 0,0.019 0,0.038 0,0.057 0,0.019 -0.01405,0.043 0,0.057 0.01405,0.014 0.04078,-0.01 0.05965,0 0.04219,0.014 0.08374,0.031 0.119307,0.057 0.045,0.032 0.07954,0.075 0.119308,0.1138 0.03977,0.038 0.07953,0.075 0.119307,0.114 0.03977,0.038 0.09036,0.068 0.119309,0.1138 0.03236,0.052 0.03629,0.1152 0.05965,0.171 0.01651,0.039 0.03977,0.076 0.05965,0.1138 0.03165,0.061 0.100594,0.1496 0.05965,0.2279 -0.0089,0.017 -0.03977,0 -0.05965,0 -0.271788,0 -0.10392,0.031 -0.357922,-0.114 -0.03812,-0.022 -0.08787,-0.027 -0.119307,-0.057 -0.01405,-0.014 -0.0199,-0.057 0,-0.057 0.0199,0 0,0.038 0,0.057 0,0.076 0,0.1519 0,0.2278 0,0.1519 -0.01973,0.305 0,0.4557 0.01888,0.1443 0.167864,0.6351 0.238613,0.7973 0.05131,0.1175 0.13973,0.22 0.178961,0.3417 0.04134,0.1283 0.02804,0.2679 0.05965,0.3986 0.360975,1.034 -0.07417,-0.3324 0.119308,0.6835 0.01916,0.1005 0.09609,0.1849 0.119307,0.2848 0.01724,0.073 0,0.1518 0,0.2277 0,0.077 0,0.152 0,0.2279 0,0.019 0,0.038 0,0.057 0,0.019 0.0199,0.057 0,0.057 -0.0199,0 0.01405,-0.043 0,-0.057 -0.01405,-0.014 -0.07556,-0.012 -0.05965,0 0.631554,0.4522 -0.01345,-0.1267 0.536879,0.3987 0.548229,0.5234 0.07834,0.026 0.29827,0.3417 0.07275,0.1043 0.07604,0.01 0.119308,0.1709 0.0097,0.037 0,0.077 0,0.1139 0,0.095 0,0.1898 0,0.2847 0,0.1088 0.0041,0.3408 0,0.3418 -0.300165,0.071 -0.226058,-0.07 -0.536881,-0.1139 -0.157226,-0.024 -0.31938,0.019 -0.477227,0 -1.185946,-0.1416 0.11819,-0.114 -0.835149,-0.114 -0.139184,0 -0.278382,0 -0.417574,0 -0.0199,0 -0.05076,-0.017 -0.05965,0 -0.02668,0.051 0.02668,0.1199 0,0.1708 -0.01254,0.024 -0.05076,0.032 -0.05965,0.057 -0.01254,0.036 0,0.074 0,0.1139 0,0.038 0,0.075 0,0.1138 0,0.171 0,0.3417 0,0.5127 0,0.1898 0,0.3797 0,0.5694 0,0.038 0,0.076 0,0.1139 0,0.038 -0.0097,0.079 0,0.114 0.01073,0.041 0.05094,0.072 0.05965,0.1138 0.01949,0.093 0,0.1898 0,0.2847 0,0.057 0,0.114 0,0.171 0,0.038 0.0097,0.078 0,0.1138 -0.02295,0.088 -0.166478,0.2389 -0.238614,0.2848 -0.01656,0.011 -0.04187,-0.01 -0.05965,0 -0.02516,0.012 -0.03449,0.045 -0.05965,0.057 -0.01778,0.01 -0.03977,0 -0.05965,0 -0.03977,0 -0.07953,0 -0.119307,0 -0.03977,0 -0.0803,0.01 -0.119308,0 -0.152184,-0.029 -0.314918,-0.1526 -0.477228,-0.1138 -0.04314,0.011 -0.07712,0.043 -0.119307,0.057 -0.01884,0.01 -0.04558,-0.014 -0.05965,0 -0.01405,0.014 0.01405,0.043 0,0.057 -0.01405,0.014 -0.04559,-0.014 -0.05965,0 -0.01405,0.014 0,0.038 0,0.057 0,0.095 0,0.1899 0,0.2848 0,0.1139 0,0.2277 0,0.3416 0,0.038 -0.0079,0.077 0,0.1139 0.02982,0.1424 0.111901,0.2707 0.17896,0.3988 0.0199,0.038 0.02822,0.082 0.05965,0.1138 0.03143,0.03 0.08787,0.027 0.119308,0.057 0.03144,0.03 0.03499,0.078 0.05965,0.114 0.01559,0.023 0.03977,0.038 0.05965,0.057 0.03977,0.057 0.08243,0.1121 0.119308,0.1708 0.05187,0.082 0.141633,0.2527 0.178961,0.3418 0.02336,0.056 0.03629,0.115 0.05965,0.1709 0.03303,0.08 0.09774,0.1454 0.119308,0.2277 0.0097,0.036 -0.0097,0.076 0,0.1139 0.06855,0.2618 0.05965,0.013 0.05965,0.1709 0,0.038 0,0.075 0,0.1139 0,0.019 0.01885,0.051 0,0.057 -0.148526,0.047 -0.546758,-0.099 -0.596535,-0.114 -0.180055,-0.054 -0.351111,-0.1395 -0.536882,-0.1707 -0.156654,-0.026 -0.31815,0 -0.477228,0 -0.159075,-0.038 -0.316895,-0.08 -0.477227,-0.1139 -0.118265,-0.025 -0.238184,-0.04 -0.357921,-0.057 -0.01968,0 -0.05076,-0.017 -0.05965,0 -0.0178,0.034 0,0.077 0,0.1139 0,0.076 0,0.152 0,0.2278 0,0.057 -0.0098,0.1147 0,0.1709 0.01028,0.059 0.0493,0.1117 0.05965,0.1708 0.01636,0.093 0,0.1898 0,0.2847 0,0.171 0,0.3419 0,0.5127 0,0.057 0,0.1139 0,0.1709 0,0.057 -0.0098,0.1146 0,0.1708 0.01028,0.059 0.04932,0.1116 0.05965,0.1708 0.01636,0.093 0,0.1899 0,0.2848 0,0.019 0,0.038 0,0.057 0,0.019 0.01405,0.043 0,0.057 -0.01405,0.014 -0.03977,0 -0.05965,0 -0.0199,0 -0.03977,0 -0.05965,0 -0.159078,0 0.0199,-0.019 -0.05965,0.057 -0.01405,0.014 -0.03977,0 -0.05965,0 -0.0199,0.057 -0.0493,0.1115 -0.05965,0.1707 -0.0098,0.056 0,0.1139 0,0.171 0,0.1138 0,0.2277 0,0.3416 0,0.019 0,0.038 0,0.057 0,0.019 0.01406,0.043 0,0.057 -0.03142,0.03 -0.07953,0.038 -0.119307,0.057 -0.123902,0.059 -0.178293,0.081 -0.298267,0.1709 -0.04392,0.033 -0.07107,0.085 -0.119308,0.1139 -0.485051,0.2778 0.06388,-0.1166 -0.298267,0.1138 -0.0234,0.015 -0.03625,0.042 -0.05965,0.057 -0.03699,0.024 -0.07712,0.043 -0.119308,0.057 -0.01194,0 -0.16708,0 -0.17896,0 -0.04219,-0.014 -0.08787,-0.026 -0.119307,-0.057 -0.01405,-0.014 0,-0.038 0,-0.057 0,-0.1329 0,-0.2656 0,-0.3986 0,-0.057 0,-0.1139 0,-0.1709 0,-0.019 -0.0199,-0.057 0,-0.057 0.02812,0 0.03717,0.041 0.05965,0.057 0.05735,0.041 0.114834,0.083 0.17896,0.114 0.05625,0.027 0.117298,0.045 0.178961,0.057 0.039,0.01 0.08375,-0.017 0.119309,0 0.0098,0 0,0.1557 0,0.1709 0,0.019 0.01405,0.043 0,0.057 -0.0038,0 -0.227503,0.1067 -0.238615,0.1138 -0.0234,0.015 -0.03238,0.05 -0.05965,0.057 -0.05788,0.014 -0.119308,0 -0.17896,0 -0.09942,0 -0.198844,0 -0.298266,0 -0.05965,0 -0.120472,0.011 -0.178961,0 -0.08719,-0.017 -0.152344,-0.093 -0.238614,-0.1138 -0.03859,-0.01 -0.08073,0.01 -0.119308,0 -0.04314,-0.01 -0.07802,-0.041 -0.119308,-0.057 -0.05838,-0.023 -0.122723,-0.03 -0.178959,-0.057 -0.05031,-0.024 -0.07251,-0.085 -0.119308,-0.1139 -0.03699,-0.024 -0.08232,-0.033 -0.119307,-0.057 -0.0234,-0.015 -0.03449,-0.045 -0.05965,-0.057 -0.01779,-0.01 -0.04187,0.01 -0.05965,0 -0.04312,-0.021 -0.07882,-0.1149 -0.119308,-0.057 -0.113337,0.1623 -0.04414,0.3918 -0.05965,0.5694 -0.0133,0.1526 -0.04966,0.303 -0.05965,0.4558 -0.01,0.1514 0.01973,0.3048 0,0.4555 -0.01451,0.1114 -0.197711,0.7275 -0.238613,0.8543 -0.03699,0.1148 -0.08881,0.2253 -0.119308,0.3417 -0.08489,0.3242 -0.01666,0.3735 -0.178959,0.6834 -0.02516,0.048 -0.09416,0.066 -0.119308,0.114 -0.0178,0.034 0.01779,0.081 0,0.1138 -0.0089,0.017 -0.04558,-0.014 -0.05965,0 -0.01406,0.014 0.01405,0.043 0,0.057 -0.04314,0.041 -0.161382,-0.073 -0.238616,-0.1139 -0.511905,-0.2444 0.0039,0.014 -0.417574,-0.2278 -0.03812,-0.022 -0.08373,-0.031 -0.119307,-0.057 -0.133623,-0.096 -0.224296,-0.246 -0.357921,-0.3416 -0.03558,-0.025 -0.0823,-0.033 -0.119307,-0.057 -0.05691,-0.036 -0.04341,-0.081 -0.119308,-0.057 -0.207988,0.066 -0.451013,0.2751 -0.536882,0.4555 -0.05005,0.1052 -0.02783,0.2303 -0.05965,0.3417 -0.02818,0.099 -0.09608,0.185 -0.119309,0.2848 0,0.4329 0.03558,0.069 -0.05965,0.3417 -0.0063,0.018 0.01405,0.043 0,0.057 -0.01405,0.014 -0.03977,0 -0.05965,0 -0.210297,0 -0.04203,0.027 -0.238614,-0.1138 -0.07113,-0.051 -0.164623,-0.067 -0.238613,-0.1139 -0.05149,-0.032 -0.132368,-0.1264 -0.17896,-0.1709 -0.135783,-0.1296 0.01239,-0.015 -0.119307,-0.057 -0.08436,-0.026 -0.1509,-0.1 -0.238616,-0.114 -0.07845,-0.013 -0.159875,0.011 -0.238614,0 -0.505606,-0.069 0.06665,-0.057 -0.298267,-0.057 -0.01375,0 -0.336613,0.01 -0.357921,0 -0.02516,-0.012 -0.03977,-0.038 -0.05965,-0.057 -0.05965,-0.038 -0.113065,-0.087 -0.17896,-0.1139 -0.07535,-0.03 -0.160835,-0.032 -0.238615,-0.057 -0.10333,-0.033 -0.432938,-0.1618 -0.536882,-0.2279 -0.08778,-0.056 -0.150838,-0.1718 -0.238612,-0.2278 -0.03699,-0.024 -0.08118,-0.035 -0.119307,-0.057 -0.04582,-0.026 -0.220348,-0.1523 -0.298267,-0.1708 -0.0021,-5e-4 -0.178643,3e-4 -0.178962,0 -0.01405,-0.014 0.01406,-0.043 0,-0.057 -0.01405,-0.014 -0.03977,0 -0.05965,0 -0.01989,0 -0.03977,0 -0.05965,0 -0.219828,0 0.282018,0 -0.298267,0.057 -0.09881,0.011 -0.198845,0 -0.298268,0 -0.09942,0 -0.198845,0 -0.298268,0 -0.338035,0 -0.676071,0 -1.014109,0 -0.119306,0 -0.238613,0 -0.357919,0 -0.03977,0 -0.08159,-0.012 -0.119308,0 -0.02668,0.01 -0.03716,0.041 -0.05965,0.057 -0.05736,0.041 -0.114835,0.082 -0.178959,0.1138 -0.01779,0.01 -0.04079,-0.01 -0.05966,0 -0.04218,0.014 -0.07712,0.043 -0.119308,0.057 -0.0131,0 -0.229746,0 -0.238615,0 -0.06412,-0.03 -0.114835,-0.082 -0.178959,-0.1139 -0.123505,-0.059 -0.171229,-0.018 -0.238614,-0.1138 -0.02467,-0.035 -0.03677,-0.078 -0.05966,-0.114 -0.03688,-0.059 -0.09107,-0.1079 -0.119307,-0.1708 -0.07794,-0.1736 -0.05136,-0.3342 -0.119307,-0.5126 -0.04559,-0.1196 -0.134098,-0.2217 -0.178961,-0.3417 -0.05515,-0.1474 -0.08374,-0.3028 -0.119307,-0.4556 -0.04399,-0.189 -0.0492,-0.3879 -0.119306,-0.5696 -0.2876782,-0.7454 -0.189339,-0.2979 -0.536882,-0.7403 -0.053356,-0.068 -0.086281,-0.149 -0.1193077,-0.2278 -0.00963,-0.023 0.029515,-0.1991 -0.059652,-0.114 -0.02812,0.026 0,0.075 0,0.114 0,0.1709 0,0.3417 0,0.5126 0,0.075 0.015598,0.1534 0,0.2278 -0.012335,0.059 -0.047321,0.1119 -0.059652,0.1708 -0.0078,0.037 0,0.076 0,0.1139 0,0.095 0,0.1898 0,0.2847 0,0.019 0,0.038 0,0.057 0,0.019 0.014057,0.043 0,0.057 -0.063705,0.061 -0.098037,-0.071 -0.1193076,-0.171 -0.0078,-0.037 0,-0.076 0,-0.1138 0,-0.057 0,-0.1139 0,-0.171 0,-0.057 0.00981,-0.1146 0,-0.1707 -0.024469,-0.1402 -0.062568,-0.2015 -0.1789604,-0.2848 -0.035572,-0.025 -0.075707,-0.049 -0.1193076,-0.057 -0.058496,-0.011 -0.1204656,0.011 -0.1789603,0 -0.043599,-0.01 -0.075707,-0.049 -0.1193076,-0.057 -0.021285,0 -0.3765208,-0.01 -0.4175743,0 -0.06166,0.012 -0.1193076,0.038 -0.1789603,0.057 -0.059652,0.019 -0.1205774,0.034 -0.1789606,0.057 -0.041282,0.016 -0.076171,0.046 -0.1193077,0.057 -0.038581,0.01 -0.081579,-0.012 -0.1193076,0 -0.026677,0.01 -0.034501,0.045 -0.059654,0.057 -0.056241,0.026 -0.1227193,0.031 -0.1789604,0.057 -0.064125,0.03 -0.1130619,0.087 -0.1789603,0.1139 -0.075356,0.03 -0.1608354,0.032 -0.2386141,0.057 -0.2162611,0.069 -0.042455,0.028 -0.1789603,0.1138 -0.036995,0.024 -0.078023,0.041 -0.1193077,0.057 -0.1748465,0.067 -0.362035,0.104 -0.5368813,0.1707 -0.041283,0.016 -0.077126,0.043 -0.1193077,0.057 -0.018865,0.01 -0.039769,0 -0.059654,0 -0.039769,0 -0.079538,0 -0.1193076,0 -0.099423,0 -0.2001977,0.016 -0.2982673,0 -0.062026,-0.01 -0.1179578,-0.042 -0.1789606,-0.057 -0.019291,0 -0.040789,0.01 -0.059652,0 -0.052664,-0.017 -0.3107168,-0.1408 -0.3579209,-0.1707 -0.06832,-0.043 -0.083084,-0.1018 -0.1193077,-0.171 -0.019885,-0.038 -0.045592,-0.073 -0.059652,-0.1138 -0.00987,-0.029 -0.00509,-0.1662 0,-0.1709 0.014057,-0.014 0.041868,0.01 0.059652,0 0.025153,-0.012 0.034502,-0.045 0.059652,-0.057 0.035572,-0.017 0.091187,0.026 0.1193076,0 0.014057,-0.014 -0.014057,-0.043 0,-0.057 0.050696,-0.048 0.1216052,-0.072 0.1789603,-0.1139 0.022497,-0.016 0.036255,-0.042 0.059654,-0.057 0.054493,-0.034 0.1447669,-0.049 0.1789604,-0.114 0.00889,-0.017 -0.00889,-0.04 0,-0.057 0.012576,-0.024 0.050761,-0.031 0.059654,-0.057 0.00911,-0.026 0,-0.2529 0,-0.2847 0,-0.038 0,-0.077 0,-0.1138 0,-0.019 0.011034,-0.041 0,-0.057 -0.1334936,-0.191 -0.092758,-0.074 -0.2982674,-0.1138 -0.1275577,-0.024 -0.099279,-0.1013 -0.2386139,-0.057 -0.026678,0.01 -0.031814,0.053 -0.059654,0.057 -0.1181075,0.016 -0.2386139,0 -0.3579209,0 -0.1590759,0 -0.3181519,0 -0.4772278,0 -0.039769,0 -0.079538,0 -0.1193077,0 -0.019884,0 -0.059654,0.019 -0.059654,0 0,-0.042 0.048871,-0.073 0.059654,-0.1138 0.00964,-0.037 -0.02206,-0.083 0,-0.114 0.024663,-0.035 0.082312,-0.033 0.1193077,-0.057 0.023397,-0.015 0.032975,-0.048 0.059652,-0.057 0.059268,-0.019 0.1535245,0.04 0.1789604,-0.057 0.014465,-0.055 0,-0.1139 0,-0.171 0,-0.038 0.0078,-0.077 0,-0.1138 -0.012335,-0.059 -0.039769,-0.1139 -0.059652,-0.1708 -0.019885,-0.057 -0.039769,-0.1139 -0.059652,-0.171 -0.059654,-0.1707 -0.1193077,-0.3416 -0.1789604,-0.5124 -0.019885,-0.057 -0.044403,-0.1127 -0.059652,-0.171 -0.00482,-0.019 0.014057,-0.043 0,-0.057 -0.014057,-0.014 -0.059654,0.019 -0.059654,0 0,-0.019 0.079152,0 0.059654,0 -0.1186033,0.023 -0.2377081,0.044 -0.3579209,0.057 -0.059288,0.01 -0.1193076,0 -0.1789603,0 -0.079538,0 -0.159076,0 -0.238614,0 -0.079538,0 -0.1601582,-0.013 -0.2386139,0 -0.043858,0.01 -0.077124,0.043 -0.1193077,0.057 -0.018865,0.01 -0.039769,0 -0.059652,0 -0.039769,0 -0.081579,-0.012 -0.1193061,0 -0.026677,0.01 -0.039769,0.038 -0.059652,0.057 -0.039769,0 -0.081579,-0.012 -0.1193076,0 -0.017472,0.01 -0.071302,0.1029 -0.1193061,0.057 -0.00192,0 0,-0.1571 0,-0.1709 0,-0.038 0,-0.076 0,-0.1139 0,-0.038 -0.012576,-0.078 0,-0.114 0.010762,-0.03 0.1528331,-0.1334 0.1789602,-0.1707 0.024664,-0.035 0.034992,-0.08 0.059654,-0.1139 0.015598,-0.023 0.047077,-0.033 0.059652,-0.057 0.00889,-0.017 -0.011034,-0.041 0,-0.057 0.031197,-0.045 0.079538,-0.076 0.1193076,-0.1139 0.039769,-0.038 0.074314,-0.081 0.1193076,-0.1138 0.174201,-0.1248 0.082061,0.028 0.2386138,-0.1709 0.026678,-0.034 0.045592,-0.074 0.059652,-0.1138 0.011851,-0.034 0,-0.2866 0,-0.3418 0,-0.019 0,-0.038 0,-0.057 0,-0.019 0.017785,-0.048 0,-0.057 -0.035572,-0.017 -0.080725,0.01 -0.1193076,0 -0.043135,-0.011 -0.075064,-0.053 -0.1193077,-0.057 -0.1582865,-0.015 -0.3181518,0 -0.4772278,0 -0.1590758,0 -0.318152,0 -0.4772279,0 -0.1590759,0 -0.3181517,0 -0.4772277,0 -0.039769,0 -0.083736,0.017 -0.1193076,0 -0.017785,-0.01 0.00629,-0.039 0,-0.057 -0.077438,-0.2219 -0.059654,-0.01 -0.059654,-0.2279 0,-0.057 -0.011699,-0.115 0,-0.1708 0.00871,-0.041 0.03499,-0.079 0.059654,-0.1139 0.016857,-0.025 0.1542789,-0.159 0.1789604,-0.1709 0.035572,-0.017 0.091187,0.026 0.1193061,0 0.014057,-0.014 -0.014057,-0.043 0,-0.057 0.014057,-0.014 0.041869,0.01 0.059654,0 0.025153,-0.012 0.036255,-0.042 0.059652,-0.057 0.036995,-0.024 0.082312,-0.033 0.1193061,-0.057 0.023397,-0.015 0.036255,-0.042 0.059652,-0.057 0.036995,-0.024 0.083736,-0.031 0.1193076,-0.057 0.044994,-0.032 0.079538,-0.077 0.1193061,-0.114 0.039769,-0.038 0.085562,-0.071 0.1193078,-0.1138 0.026677,-0.034 0.045592,-0.074 0.059652,-0.114 0.00627,-0.018 -0.014057,-0.043 0,-0.057 0.014057,-0.014 0.045592,0.014 0.059652,0 0.014057,-0.014 0.00889,-0.04 0,-0.057 -0.060323,-0.1153 -0.1384365,-0.019 -0.1789605,-0.057 -0.014057,-0.014 -0.019885,-0.057 0,-0.057 0.019885,0 0,0.038 0,0.057 0,0.019 0,0.038 0,0.057 0,0.019 0,0.038 0,0.057 0,0.019 0.017785,0.066 0,0.057 -0.00529,0 -0.2257926,-0.2179 -0.2386139,-0.2277 -0.055984,-0.042 -0.1341724,-0.061 -0.1789604,-0.114 -0.039281,-0.047 -0.036302,-0.1151 -0.059652,-0.1708 -0.016514,-0.039 -0.034992,-0.079 -0.059652,-0.114 -0.036202,-0.052 -0.1525238,-0.1202 -0.1789604,-0.1707 -0.00889,-0.017 0.00889,-0.04 0,-0.057 -0.025153,-0.048 -0.094156,-0.066 -0.1193078,-0.1139 -0.00908,-0.018 0,-0.1452 0,-0.1709 0,-0.1361 0,-0.1461 0,-0.3986 0,-0.095 0,-0.1898 0,-0.2847 0,-0.019 0,-0.038 0,-0.057 0,-0.019 -0.00889,-0.04 0,-0.057 0.012576,-0.024 0.047077,-0.033 0.059654,-0.057 0.00784,-0.015 0,-0.198 0,-0.2278 0,-0.026 0.00908,-0.1535 0,-0.1708 -0.012576,-0.024 -0.039769,-0.038 -0.059654,-0.057 -0.019885,-0.019 -0.034501,-0.045 -0.059654,-0.057 -0.017785,-0.01 -0.059654,0.019 -0.059654,0 0,-0.019 0.045593,-0.014 0.059654,0 0.014057,0.014 -0.014057,0.043 0,0.057 0.014057,0.014 0.059654,0.019 0.059654,0 0,-0.042 -0.039769,-0.076 -0.059654,-0.1138 -0.019885,-0.038 -0.03499,-0.079 -0.059654,-0.114 -0.1243994,-0.1782 -0.3265793,-0.3784 -0.4175744,-0.5694 -0.0419561,-0.089 -0.0197135,-0.1959 -0.0596536,-0.2849 -0.0221547,-0.049 -0.17554881,-0.114 -0.11930703,-0.114 0.0716946,0 0.11483492,0.083 0.17896044,0.114 0.0562418,0.027 0.12057759,0.034 0.17896049,0.057 0.041283,0.016 0.075707,0.049 0.119307,0.057 0.097492,0.019 0.1988449,0 0.2982675,0 0.1789603,0 0.3579208,0 0.5368812,0 0.019884,0 0.039769,0 0.059652,0 0.019885,0 0.045594,0.014 0.059652,0 0.028119,-0.026 -0.012576,-0.079 0,-0.1139 0.014057,-0.04 0.045592,-0.073 0.059652,-0.114 0.00629,-0.018 0,-0.038 0,-0.057 0,-0.038 0,-0.077 0,-0.1139 0,-0.038 0,-0.076 0,-0.114 0,-0.019 0.00629,-0.039 0,-0.057 -0.014057,-0.04 -0.03499,-0.079 -0.059652,-0.1139 -0.015598,-0.023 -0.04278,-0.035 -0.059652,-0.057 -0.043016,-0.055 -0.068612,-0.1224 -0.1193061,-0.1708 -0.03144,-0.03 -0.091531,-0.024 -0.1193076,-0.057 -0.055544,-0.067 -0.075179,-0.154 -0.1193002,-0.2277 -0.03557,-0.06 -0.079538,-0.1139 -0.1193076,-0.171 -0.039769,-0.095 -0.07142,-0.1932 -0.1193076,-0.2848 -0.1123605,-0.2144 -0.4102872,-0.6661 -0.5368813,-0.8542 -0.0775387,-0.1151 -0.13722252,-0.2449 -0.23861394,-0.3417 -0.0628802,-0.06 -0.16236037,-0.071 -0.2386139,-0.1139 -0.0241135,-0.014 -0.0596536,-0.03 -0.0596536,-0.057 0,-0.019 0.0401552,0 0.0596536,0 0.0803936,-0.016 0.15726114,-0.047 0.2386139,-0.057 0.29922774,-0.035 0.18348066,0.055 0.47722794,-0.057 0.02611,-0.01 0.0345,-0.045 0.059654,-0.057 0.013098,-0.01 0.3534953,0 0.357921,0 0.026677,0.01 0.037155,0.041 0.059652,0.057 0.057356,0.041 0.1193077,0.077 0.1789606,0.114 0.1193076,0.076 0.2386139,0.1518 0.3579209,0.2277 0.059652,0.038 0.1193062,0.077 0.1789604,0.1139 0.059652,0.019 0.1250411,0.025 0.1789604,0.057 0.2715595,0.2592 -0.02471,0.031 0.2386138,0.1139 0.026678,0.01 0.031533,0.057 0.059654,0.057 0.019885,0 -0.00629,-0.039 0,-0.057 0.014057,-0.04 0.050933,-0.072 0.059652,-0.1139 0.011699,-0.056 0,-0.1138 0,-0.1709 0,-0.057 0.022155,-0.1179 0,-0.1708 -0.020887,-0.05 -0.084173,-0.072 -0.1193077,-0.1139 -0.044786,-0.053 -0.077635,-0.1151 -0.1193061,-0.1708 -0.1262669,-0.1688 -0.1928287,-0.2308 -0.2982675,-0.3988 -0.022876,-0.036 -0.032975,-0.08 -0.059652,-0.1138 -0.033745,-0.043 -0.085562,-0.071 -0.1193077,-0.1138 -0.017609,-0.023 -0.1724334,-0.317 -0.1789605,-0.3418 -0.00964,-0.036 0.00964,-0.078 0,-0.1139 -0.010777,-0.041 -0.045592,-0.074 -0.059652,-0.1139 -0.011851,-0.034 0,-0.2866 0,-0.3418 0,-0.1138 0,-0.2278 0,-0.3417 0,-0.019 0,-0.038 0,-0.057 0,-0.019 -0.00889,-0.04 0,-0.057 0.012576,-0.024 0.044054,-0.034 0.059652,-0.057 0.024663,-0.035 0.028214,-0.083 0.059654,-0.1139 0.014057,-0.014 0.040154,0 0.059652,0 0.080394,-0.016 0.1597826,-0.035 0.2386139,-0.057 0.060461,-0.017 0.116936,-0.047 0.1789604,-0.057 0.058842,-0.01 0.1193077,0 0.1789605,0 0.159076,0 0.3181518,0 0.4772278,0 0.079538,0 0.1590759,0 0.2386139,0 0.019885,0 0.073714,0.014 0.059652,0 -0.031439,-0.03 -0.082311,-0.033 -0.1193061,-0.057 -0.046796,-0.03 -0.072511,-0.083 -0.1193077,-0.114 -0.036995,-0.024 -0.087867,-0.026 -0.1193076,-0.057 -0.1126598,-0.1076 -0.028151,-0.1075 -0.059654,-0.2278 -0.010777,-0.041 -0.048869,-0.073 -0.059654,-0.1139 -0.00964,-0.037 0,-0.076 0,-0.114 0,-0.1518 0,-0.3037 0,-0.4555 0,-0.114 0,-0.2279 0,-0.3417 0,-0.019 -0.019885,-0.057 0,-0.057 0.019885,0 0,0.038 0,0.057 0,0.019 0,0.038 0,0.057 0,0.022 -0.00579,0.2792 0,0.2848 0.014057,0.014 0.039769,0 0.059652,0"
       id="path4329"
       inkscape:connector-curvature="0" />
  </g>
</svg>
